<?xml version="1.0" encoding="utf-8"?>
<!-- Simple honeycomb tile SVG used as a repeated background in the hero -->
<svg xmlns="http://www.w3.org/2000/svg" width="200" height="200" viewBox="0 0 200 200">
  <rect width="100%" height="100%" fill="#fff9f2"/>
  <g fill="none" stroke="#e8cf8a" stroke-opacity="0.18" stroke-width="2">
    <path d="M50 10 L75 0 L100 10 L125 0 L150 10 L125 30 L100 20 L75 30 L50 20 Z" />
    <g transform="translate(0,60)">
      <path d="M50 10 L75 0 L100 10 L125 0 L150 10 L125 30 L100 20 L75 30 L50 20 Z" />
    </g>
    <g transform="translate(0,120)">
      <path d="M50 10 L75 0 L100 10 L125 0 L150 10 L125 30 L100 20 L75 30 L50 20 Z" />
    </g>
  </g>
</svg>
